<svg width="491" height="491" viewBox="0 0 491 491" fill="none" xmlns="http://www.w3.org/2000/svg">
<path opacity="0.25" fill-rule="evenodd" clip-rule="evenodd" d="M489 245.5C489 379.981 379.981 489 245.5 489C111.019 489 2 379.981 2 245.5C2 111.019 111.019 2 245.5 2C379.981 2 489 111.019 489 245.5ZM491 245.5C491 381.086 381.086 491 245.5 491C109.914 491 0 381.086 0 245.5C0 109.914 109.914 0 245.5 0C381.086 0 491 109.914 491 245.5ZM392 245.5C392 326.41 326.41 392 245.5 392C164.59 392 99 326.41 99 245.5C99 164.59 164.59 99 245.5 99C326.41 99 392 164.59 392 245.5ZM394 245.5C394 327.514 327.514 394 245.5 394C163.486 394 97 327.514 97 245.5C97 163.486 163.486 97 245.5 97C327.514 97 394 163.486 394 245.5Z" fill="white"/>
</svg>
